<svg xmlns="http://www.w3.org/2000/svg" xmlns:xlink="http://www.w3.org/1999/xlink" viewBox="0 0 258.5 149.41"><defs><style>.cls-1{fill:url(#Dégradé_sans_nom_3);}</style><linearGradient id="Dégradé_sans_nom_3" x1="26.17" y1="26.52" x2="234.93" y2="147.09" gradientUnits="userSpaceOnUse"><stop offset="0" stop-color="#f0494b"/><stop offset="1" stop-color="#ef496c"/></linearGradient></defs><g id="Calque_2" data-name="Calque 2"><g id="Calque_1-2" data-name="Calque 1"><path class="cls-1" d="M205.18,24.2h-6.8V36.73h4.73q5,0,7.5-1.83a5.64,5.64,0,0,0,2.53-4.81Q213.14,24.2,205.18,24.2Zm0,22.56h-6.8V59.7h6.72q9.45,0,9.45-6.47T205.18,46.76Zm0,0h-6.8V59.7h6.72q9.45,0,9.45-6.47T205.18,46.76Zm0-22.56h-6.8V36.73h4.73q5,0,7.5-1.83a5.64,5.64,0,0,0,2.53-4.81Q213.14,24.2,205.18,24.2Zm0,0h-6.8V36.73h4.73q5,0,7.5-1.83a5.64,5.64,0,0,0,2.53-4.81Q213.14,24.2,205.18,24.2Zm0,22.56h-6.8V59.7h6.72q9.45,0,9.45-6.47T205.18,46.76Zm0,0h-6.8V59.7h6.72q9.45,0,9.45-6.47T205.18,46.76Zm0-22.56h-6.8V36.73h4.73q5,0,7.5-1.83a5.64,5.64,0,0,0,2.53-4.81Q213.14,24.2,205.18,24.2Zm-103.76,70a12.89,12.89,0,0,0-19.74,0Q78,98.84,78,106.71t3.65,12.49a12.89,12.89,0,0,0,19.74,0q3.64-4.61,3.65-12.49T101.42,94.23Zm103.76-70h-6.8V36.73h4.73q5,0,7.5-1.83a5.64,5.64,0,0,0,2.53-4.81Q213.14,24.2,205.18,24.2Zm0,22.56h-6.8V59.7h6.72q9.45,0,9.45-6.47T205.18,46.76Zm0,0h-6.8V59.7h6.72q9.45,0,9.45-6.47T205.18,46.76Zm5.43-11.86a5.64,5.64,0,0,0,2.53-4.81q0-5.89-8-5.89h-6.8V36.73h4.73Q208.09,36.73,210.61,34.9ZM101.42,94.23a12.89,12.89,0,0,0-19.74,0Q78,98.84,78,106.71t3.65,12.49a12.89,12.89,0,0,0,19.74,0q3.64-4.61,3.65-12.49T101.42,94.23Zm136.42,15.41V69a28.35,28.35,0,0,0,3.65-14.23,28.39,28.39,0,0,0-3.58-14.21,27.77,27.77,0,0,0,2.26-11.09A28.19,28.19,0,0,0,230.75,8C224.9,2.69,217,0,207.34,0H80.63l-.21.83H51.76L51.56,0H8.93l4.74,17.63,12.7,47.3H0v83.9H75v-2.47a43.88,43.88,0,0,0,16.52,3c12,0,22.43-4.27,30-12.34.32-.34.63-.68.93-1l1.07,3.21,3.19,9.58H258.5V109.64ZM145.88,14H180.3V24.2H158.73V36.89H178V47H158.73V59.7h21.9V69.9H145.88Zm-39.73,0h34.42V24.2H119V36.89h19.25V47H119V59.7h21.9V69.9H106.15ZM61,134.83H47L33.66,111.69Q31,107.21,29,102.86t-2.78-6.43l-.66-2.08a106.65,106.65,0,0,1,1.24,17.34v23.14H14V78.93H28l13,23.14q2.73,4.89,4.77,9.16a64.31,64.31,0,0,1,2.61,6l.66,1.82a135.25,135.25,0,0,1-.82-17V78.93H61ZM56.47,69.9H42.2L27.19,14H40.62l5.15,20.57q1.65,6.63,2.73,12c.72,3.57,1.17,6.05,1.33,7.43l.33,2q1.41-6.48,5.64-21.4l5.56-19.74h9.46l5.47,19.74Q78,40.8,79.4,46.14t1.87,7.59L81.76,56q1.08-7.38,4.65-21.48L91.55,14h13L89.64,69.9H75.38l-4.9-17.66q-1.74-6.39-2.86-10.79t-1.37-5.64l-.16-1.24Q65.84,38,61.61,52.24Zm54.86,57.59q-7.42,7.92-19.78,7.92t-19.82-7.88q-7.38-7.87-7.38-20.82t7.42-20.77Q79.19,78,91.55,78t19.82,7.88q7.38,7.89,7.39,20.82T111.33,127.49Zm39.61,7.34h-14.1l-18.58-55.9H132l6.71,22.31q1.83,6,3.16,11.49t1.74,8l.41,2.57a168.7,168.7,0,0,1,5.39-22.06l6.72-22.31h13.6Zm55.15,0H171.34V78.93h34.42v10.2H184.2v12.69h19.24v10.12H184.2v12.69h21.89ZM185.61,69.9V14h21.73q9.19,0,14,4.35a14.3,14.3,0,0,1,4.82,11.08,13.09,13.09,0,0,1-2.33,7.71,11.33,11.33,0,0,1-6.05,4.48q9.71,2.91,9.7,13.1a14,14,0,0,1-4.77,10.91q-4.77,4.28-13,4.27Zm58.89,64.93H211.07V78.93h12.77v44.7H244.5ZM205.18,46.76h-6.8V59.7h6.72q9.45,0,9.45-6.47T205.18,46.76Zm5.43-11.86a5.64,5.64,0,0,0,2.53-4.81q0-5.89-8-5.89h-6.8V36.73h4.73Q208.09,36.73,210.61,34.9ZM91.55,89.63a11.92,11.92,0,0,0-9.87,4.6Q78,98.84,78,106.71t3.65,12.49a12.89,12.89,0,0,0,19.74,0q3.64-4.61,3.65-12.49t-3.65-12.48A11.92,11.92,0,0,0,91.55,89.63ZM205.18,24.2h-6.8V36.73h4.73q5,0,7.5-1.83a5.64,5.64,0,0,0,2.53-4.81Q213.14,24.2,205.18,24.2Zm0,22.56h-6.8V59.7h6.72q9.45,0,9.45-6.47T205.18,46.76Zm0,0h-6.8V59.7h6.72q9.45,0,9.45-6.47T205.18,46.76Zm0-22.56h-6.8V36.73h4.73q5,0,7.5-1.83a5.64,5.64,0,0,0,2.53-4.81Q213.14,24.2,205.18,24.2Zm0,0h-6.8V36.73h4.73q5,0,7.5-1.83a5.64,5.64,0,0,0,2.53-4.81Q213.14,24.2,205.18,24.2Zm0,22.56h-6.8V59.7h6.72q9.45,0,9.45-6.47T205.18,46.76Zm0,0h-6.8V59.7h6.72q9.45,0,9.45-6.47T205.18,46.76Zm0-22.56h-6.8V36.73h4.73q5,0,7.5-1.83a5.64,5.64,0,0,0,2.53-4.81Q213.14,24.2,205.18,24.2Z"/></g></g></svg>